<svg xmlns="http://www.w3.org/2000/svg" width="726" height="722" style="cursor: move;"><g transform="translate(-1433.5457730908602,-537.9894211979565) scale(2.2910357959595284)"><path class="link" marker-end="" d="M636,245.5, 710,294.5" style="stroke-width: 0.5px; stroke-opacity: 0.3; stroke: rgb(80, 80, 80);"></path><path class="link" marker-end="" d="M636,245.5, 710,343.5" style="stroke-width: 0.5px; stroke-opacity: 0.3; stroke: rgb(80, 80, 80);"></path><path class="link" marker-end="" d="M636,245.5, 710,392.5" style="stroke-width: 0.5px; stroke-opacity: 0.3; stroke: rgb(80, 80, 80);"></path><path class="link" marker-end="" d="M636,245.5, 710,441.5" style="stroke-width: 0.5px; stroke-opacity: 0.3; stroke: rgb(80, 80, 80);"></path><path class="link" marker-end="" d="M636,294.5, 710,294.5" style="stroke-width: 0.5px; stroke-opacity: 0.3; stroke: rgb(80, 80, 80);"></path><path class="link" marker-end="" d="M636,294.5, 710,343.5" style="stroke-width: 0.5px; stroke-opacity: 0.3; stroke: rgb(80, 80, 80);"></path><path class="link" marker-end="" d="M636,294.5, 710,392.5" style="stroke-width: 0.5px; stroke-opacity: 0.3; stroke: rgb(80, 80, 80);"></path><path class="link" marker-end="" d="M636,294.5, 710,441.5" style="stroke-width: 0.5px; stroke-opacity: 0.3; stroke: rgb(80, 80, 80);"></path><path class="link" marker-end="" d="M636,343.5, 710,294.5" style="stroke-width: 0.5px; stroke-opacity: 0.3; stroke: rgb(80, 80, 80);"></path><path class="link" marker-end="" d="M636,343.5, 710,343.5" style="stroke-width: 0.5px; stroke-opacity: 0.3; stroke: rgb(80, 80, 80);"></path><path class="link" marker-end="" d="M636,343.5, 710,392.5" style="stroke-width: 0.5px; stroke-opacity: 0.3; stroke: rgb(80, 80, 80);"></path><path class="link" marker-end="" d="M636,343.5, 710,441.5" style="stroke-width: 0.5px; stroke-opacity: 0.3; stroke: rgb(80, 80, 80);"></path><path class="link" marker-end="" d="M636,392.5, 710,294.5" style="stroke-width: 0.5px; stroke-opacity: 0.3; stroke: rgb(80, 80, 80);"></path><path class="link" marker-end="" d="M636,392.5, 710,343.5" style="stroke-width: 0.5px; stroke-opacity: 0.3; stroke: rgb(80, 80, 80);"></path><path class="link" marker-end="" d="M636,392.5, 710,392.5" style="stroke-width: 0.5px; stroke-opacity: 0.3; stroke: rgb(80, 80, 80);"></path><path class="link" marker-end="" d="M636,392.5, 710,441.5" style="stroke-width: 0.5px; stroke-opacity: 0.3; stroke: rgb(80, 80, 80);"></path><path class="link" marker-end="" d="M636,441.5, 710,294.5" style="stroke-width: 0.5px; stroke-opacity: 0.3; stroke: rgb(80, 80, 80);"></path><path class="link" marker-end="" d="M636,441.5, 710,343.5" style="stroke-width: 0.5px; stroke-opacity: 0.3; stroke: rgb(80, 80, 80);"></path><path class="link" marker-end="" d="M636,441.5, 710,392.5" style="stroke-width: 0.5px; stroke-opacity: 0.3; stroke: rgb(80, 80, 80);"></path><path class="link" marker-end="" d="M636,441.5, 710,441.5" style="stroke-width: 0.5px; stroke-opacity: 0.3; stroke: rgb(80, 80, 80);"></path><path class="link" marker-end="" d="M636,490.5, 710,294.5" style="stroke-width: 0.5px; stroke-opacity: 0.3; stroke: rgb(80, 80, 80);"></path><path class="link" marker-end="" d="M636,490.5, 710,343.5" style="stroke-width: 0.5px; stroke-opacity: 0.3; stroke: rgb(80, 80, 80);"></path><path class="link" marker-end="" d="M636,490.5, 710,392.5" style="stroke-width: 0.5px; stroke-opacity: 0.3; stroke: rgb(80, 80, 80);"></path><path class="link" marker-end="" d="M636,490.5, 710,441.5" style="stroke-width: 0.5px; stroke-opacity: 0.3; stroke: rgb(80, 80, 80);"></path><path class="link" marker-end="" d="M636,539.5, 710,294.5" style="stroke-width: 0.5px; stroke-opacity: 0.3; stroke: rgb(80, 80, 80);"></path><path class="link" marker-end="" d="M636,539.5, 710,343.5" style="stroke-width: 0.5px; stroke-opacity: 0.3; stroke: rgb(80, 80, 80);"></path><path class="link" marker-end="" d="M636,539.5, 710,392.5" style="stroke-width: 0.5px; stroke-opacity: 0.3; stroke: rgb(80, 80, 80);"></path><path class="link" marker-end="" d="M636,539.5, 710,441.5" style="stroke-width: 0.5px; stroke-opacity: 0.3; stroke: rgb(80, 80, 80);"></path><path class="link" marker-end="" d="M710,294.5, 784,294.5" style="stroke-width: 0.5px; stroke-opacity: 0.3; stroke: rgb(80, 80, 80);"></path><path class="link" marker-end="" d="M710,294.5, 784,343.5" style="stroke-width: 0.5px; stroke-opacity: 0.3; stroke: rgb(80, 80, 80);"></path><path class="link" marker-end="" d="M710,294.5, 784,392.5" style="stroke-width: 0.5px; stroke-opacity: 0.3; stroke: rgb(80, 80, 80);"></path><path class="link" marker-end="" d="M710,294.5, 784,441.5" style="stroke-width: 0.5px; stroke-opacity: 0.3; stroke: rgb(80, 80, 80);"></path><path class="link" marker-end="" d="M710,343.5, 784,294.5" style="stroke-width: 0.5px; stroke-opacity: 0.3; stroke: rgb(80, 80, 80);"></path><path class="link" marker-end="" d="M710,343.5, 784,343.5" style="stroke-width: 0.5px; stroke-opacity: 0.3; stroke: rgb(80, 80, 80);"></path><path class="link" marker-end="" d="M710,343.5, 784,392.5" style="stroke-width: 0.5px; stroke-opacity: 0.3; stroke: rgb(80, 80, 80);"></path><path class="link" marker-end="" d="M710,343.5, 784,441.5" style="stroke-width: 0.5px; stroke-opacity: 0.3; stroke: rgb(80, 80, 80);"></path><path class="link" marker-end="" d="M710,392.5, 784,294.5" style="stroke-width: 0.5px; stroke-opacity: 0.3; stroke: rgb(80, 80, 80);"></path><path class="link" marker-end="" d="M710,392.5, 784,343.5" style="stroke-width: 0.5px; stroke-opacity: 0.3; stroke: rgb(80, 80, 80);"></path><path class="link" marker-end="" d="M710,392.5, 784,392.5" style="stroke-width: 0.5px; stroke-opacity: 0.3; stroke: rgb(80, 80, 80);"></path><path class="link" marker-end="" d="M710,392.5, 784,441.5" style="stroke-width: 0.5px; stroke-opacity: 0.3; stroke: rgb(80, 80, 80);"></path><path class="link" marker-end="" d="M710,441.5, 784,294.5" style="stroke-width: 0.5px; stroke-opacity: 0.3; stroke: rgb(80, 80, 80);"></path><path class="link" marker-end="" d="M710,441.5, 784,343.5" style="stroke-width: 0.5px; stroke-opacity: 0.3; stroke: rgb(80, 80, 80);"></path><path class="link" marker-end="" d="M710,441.5, 784,392.5" style="stroke-width: 0.5px; stroke-opacity: 0.3; stroke: rgb(80, 80, 80);"></path><path class="link" marker-end="" d="M710,441.5, 784,441.5" style="stroke-width: 0.5px; stroke-opacity: 0.3; stroke: rgb(80, 80, 80);"></path><path class="link" marker-end="" d="M784,294.5, 858,343.5" style="stroke-width: 0.5px; stroke-opacity: 0.3; stroke: rgb(80, 80, 80);"></path><path class="link" marker-end="" d="M784,343.5, 858,343.5" style="stroke-width: 0.5px; stroke-opacity: 0.3; stroke: rgb(80, 80, 80);"></path><path class="link" marker-end="" d="M784,392.5, 858,343.5" style="stroke-width: 0.5px; stroke-opacity: 0.3; stroke: rgb(80, 80, 80);"></path><path class="link" marker-end="" d="M784,441.5, 858,343.5" style="stroke-width: 0.5px; stroke-opacity: 0.3; stroke: rgb(80, 80, 80);"></path><path class="link" marker-end="" d="M784,294.5, 858,392.5" style="stroke-width: 0.5px; stroke-opacity: 0.3; stroke: rgb(80, 80, 80);"></path><path class="link" marker-end="" d="M784,294.5, 858,441.5" style="stroke-width: 0.5px; stroke-opacity: 0.3; stroke: rgb(80, 80, 80);"></path><path class="link" marker-end="" d="M784,343.5, 858,392.5" style="stroke-width: 0.5px; stroke-opacity: 0.3; stroke: rgb(80, 80, 80);"></path><path class="link" marker-end="" d="M784,343.5, 858,441.5" style="stroke-width: 0.5px; stroke-opacity: 0.3; stroke: rgb(80, 80, 80);"></path><path class="link" marker-end="" d="M784,392.5, 858,392.5" style="stroke-width: 0.5px; stroke-opacity: 0.3; stroke: rgb(80, 80, 80);"></path><path class="link" marker-end="" d="M784,392.5, 858,441.5" style="stroke-width: 0.5px; stroke-opacity: 0.3; stroke: rgb(80, 80, 80);"></path><path class="link" marker-end="" d="M784,441.5, 858,392.5" style="stroke-width: 0.5px; stroke-opacity: 0.3; stroke: rgb(80, 80, 80);"></path><path class="link" marker-end="" d="M784,441.5, 858,441.5" style="stroke-width: 0.5px; stroke-opacity: 0.3; stroke: rgb(80, 80, 80);"></path><path class="link" marker-end="" d="M858,343.5, 932,392.5" style="stroke-width: 0.5px; stroke-opacity: 0.3; stroke: rgb(80, 80, 80);"></path><path class="link" marker-end="" d="M858,392.5, 932,392.5" style="stroke-width: 0.5px; stroke-opacity: 0.3; stroke: rgb(80, 80, 80);"></path><path class="link" marker-end="" d="M858,441.5, 932,392.5" style="stroke-width: 0.5px; stroke-opacity: 0.3; stroke: rgb(80, 80, 80);"></path><path class="link" marker-end="" d="M636,245.5, 710,490.5" style="stroke-width: 0.5px; stroke-opacity: 0.3; stroke: rgb(80, 80, 80);"></path><path class="link" marker-end="" d="M636,294.5, 710,490.5" style="stroke-width: 0.5px; stroke-opacity: 0.3; stroke: rgb(80, 80, 80);"></path><path class="link" marker-end="" d="M636,343.5, 710,490.5" style="stroke-width: 0.5px; stroke-opacity: 0.3; stroke: rgb(80, 80, 80);"></path><path class="link" marker-end="" d="M636,392.5, 710,490.5" style="stroke-width: 0.5px; stroke-opacity: 0.3; stroke: rgb(80, 80, 80);"></path><path class="link" marker-end="" d="M636,441.5, 710,490.5" style="stroke-width: 0.5px; stroke-opacity: 0.3; stroke: rgb(80, 80, 80);"></path><path class="link" marker-end="" d="M636,490.5, 710,490.5" style="stroke-width: 0.5px; stroke-opacity: 0.3; stroke: rgb(80, 80, 80);"></path><path class="link" marker-end="" d="M636,539.5, 710,490.5" style="stroke-width: 0.5px; stroke-opacity: 0.3; stroke: rgb(80, 80, 80);"></path><path class="link" marker-end="" d="M710,490.5, 784,294.5" style="stroke-width: 0.5px; stroke-opacity: 0.3; stroke: rgb(80, 80, 80);"></path><path class="link" marker-end="" d="M710,490.5, 784,343.5" style="stroke-width: 0.5px; stroke-opacity: 0.3; stroke: rgb(80, 80, 80);"></path><path class="link" marker-end="" d="M710,490.5, 784,392.5" style="stroke-width: 0.5px; stroke-opacity: 0.3; stroke: rgb(80, 80, 80);"></path><path class="link" marker-end="" d="M710,490.5, 784,441.5" style="stroke-width: 0.5px; stroke-opacity: 0.3; stroke: rgb(80, 80, 80);"></path><path class="link" marker-end="" d="M710,294.5, 784,490.5" style="stroke-width: 0.5px; stroke-opacity: 0.3; stroke: rgb(80, 80, 80);"></path><path class="link" marker-end="" d="M710,343.5, 784,490.5" style="stroke-width: 0.5px; stroke-opacity: 0.3; stroke: rgb(80, 80, 80);"></path><path class="link" marker-end="" d="M710,392.5, 784,490.5" style="stroke-width: 0.5px; stroke-opacity: 0.3; stroke: rgb(80, 80, 80);"></path><path class="link" marker-end="" d="M710,441.5, 784,490.5" style="stroke-width: 0.5px; stroke-opacity: 0.3; stroke: rgb(80, 80, 80);"></path><path class="link" marker-end="" d="M710,490.5, 784,490.5" style="stroke-width: 0.5px; stroke-opacity: 0.3; stroke: rgb(80, 80, 80);"></path><path class="link" marker-end="" d="M784,490.5, 858,343.5" style="stroke-width: 0.5px; stroke-opacity: 0.3; stroke: rgb(80, 80, 80);"></path><path class="link" marker-end="" d="M784,490.5, 858,392.5" style="stroke-width: 0.5px; stroke-opacity: 0.3; stroke: rgb(80, 80, 80);"></path><path class="link" marker-end="" d="M784,490.5, 858,441.5" style="stroke-width: 0.5px; stroke-opacity: 0.3; stroke: rgb(80, 80, 80);"></path><circle stroke-width="2" r="9" class="node" id="0_0" cx="636" cy="245.5" style="fill: rgb(255, 255, 255); stroke: rgb(51, 51, 51);"></circle><circle stroke-width="2" r="9" class="node" id="0_1" cx="636" cy="294.5" style="fill: rgb(255, 255, 255); stroke: rgb(51, 51, 51);"></circle><circle stroke-width="2" r="9" class="node" id="0_2" cx="636" cy="343.5" style="fill: rgb(255, 255, 255); stroke: rgb(51, 51, 51);"></circle><circle stroke-width="2" r="9" class="node" id="0_3" cx="636" cy="392.5" style="fill: rgb(255, 255, 255); stroke: rgb(51, 51, 51);"></circle><circle stroke-width="2" r="9" class="node" id="0_4" cx="636" cy="441.5" style="fill: rgb(255, 255, 255); stroke: rgb(51, 51, 51);"></circle><circle stroke-width="2" r="9" class="node" id="0_5" cx="636" cy="490.5" style="fill: rgb(255, 255, 255); stroke: rgb(51, 51, 51);"></circle><circle stroke-width="2" r="9" class="node" id="0_6" cx="636" cy="539.5" style="fill: rgb(255, 255, 255); stroke: rgb(51, 51, 51);"></circle><circle stroke-width="2" r="9" class="node" id="1_0" cx="710" cy="294.5" style="fill: rgb(255, 255, 255); stroke: rgb(51, 51, 51);"></circle><circle stroke-width="2" r="9" class="node" id="1_1" cx="710" cy="343.5" style="fill: rgb(255, 255, 255); stroke: rgb(51, 51, 51);"></circle><circle stroke-width="2" r="9" class="node" id="1_2" cx="710" cy="392.5" style="fill: rgb(255, 255, 255); stroke: rgb(51, 51, 51);"></circle><circle stroke-width="2" r="9" class="node" id="1_3" cx="710" cy="441.5" style="fill: rgb(255, 255, 255); stroke: rgb(51, 51, 51);"></circle><circle stroke-width="2" r="9" class="node" id="1_4" cx="710" cy="490.5" style="fill: rgb(255, 255, 255); stroke: rgb(51, 51, 51);"></circle><circle stroke-width="2" r="9" class="node" id="2_0" cx="784" cy="294.5" style="fill: rgb(255, 255, 255); stroke: rgb(51, 51, 51);"></circle><circle stroke-width="2" r="9" class="node" id="2_1" cx="784" cy="343.5" style="fill: rgb(255, 255, 255); stroke: rgb(51, 51, 51);"></circle><circle stroke-width="2" r="9" class="node" id="2_2" cx="784" cy="392.5" style="fill: rgb(255, 255, 255); stroke: rgb(51, 51, 51);"></circle><circle stroke-width="2" r="9" class="node" id="2_3" cx="784" cy="441.5" style="fill: rgb(255, 255, 255); stroke: rgb(51, 51, 51);"></circle><circle stroke-width="2" r="9" class="node" id="2_4" cx="784" cy="490.5" style="fill: rgb(255, 255, 255); stroke: rgb(51, 51, 51);"></circle><circle stroke-width="2" r="9" class="node" id="3_0" cx="858" cy="343.5" style="fill: rgb(255, 255, 255); stroke: rgb(51, 51, 51);"></circle><circle stroke-width="2" r="9" class="node" id="3_1" cx="858" cy="392.5" style="fill: rgb(255, 255, 255); stroke: rgb(51, 51, 51);"></circle><circle stroke-width="2" r="9" class="node" id="3_2" cx="858" cy="441.5" style="fill: rgb(255, 255, 255); stroke: rgb(51, 51, 51);"></circle><circle stroke-width="2" r="9" class="node" id="4_0" cx="932" cy="392.5" style="fill: rgb(255, 255, 255); stroke: rgb(51, 51, 51);"></circle><text class="text" dy=".35em" x="897" y="588.5" style="font-size: 12px;"></text></g><defs><marker id="arrow" viewBox="0 -5 10 10" markerWidth="7" markerHeight="7" orient="auto" refX="37.2"><path d="M0,-5L10,0L0,5" style="stroke: rgb(80, 80, 80); fill: none;"></path></marker></defs></svg>
