<?xml version="1.0" encoding="UTF-8"?>
<!DOCTYPE svg PUBLIC "-//W3C//DTD SVG 1.1//EN" "http://www.w3.org/Graphics/SVG/1.1/DTD/svg11.dtd">
<svg xmlns="http://www.w3.org/2000/svg" xmlns:xlink="http://www.w3.org/1999/xlink" version="1.1" width="601px" height="601px" viewBox="-0.5 -0.5 601 601" style="background-color: rgb(255, 255, 255);"><defs><style type="text/css">@import url(https://fonts.googleapis.com/css?family=Spartan);&#xa;</style></defs><g><rect x="0" y="0" width="600" height="600" fill="#f0f0fb" stroke="none" pointer-events="all"/><path d="M 348.6 331.2 L 365 331.08 Q 375 331 379.3 321.97 L 382.15 315.99 Q 385 310 391.9 317.24 L 398.45 324.12 Q 405 331 408.07 321.48 L 411.93 309.52 Q 415 300 423.94 304.47 L 429.47 307.24 Q 435 310 439.47 301.06 L 442.24 295.53 Q 445 290 449.47 298.94 L 452.24 304.47 Q 455 310 457.43 300.3 L 462.57 279.7 Q 465 270 472.07 277.07 L 478.54 283.54 Q 485 290 487.43 280.3 L 492.57 259.7 Q 495 250 500 250 L 502.5 250 Q 505 250 509.59 241.12 L 515.71 229.29" fill="none" stroke="#bbcbf9" stroke-width="9" stroke-miterlimit="10" pointer-events="stroke"/><path d="M 84.29 370.71 L 95 370.86 Q 105 371 110 365.5 L 112.5 362.75 Q 115 360 123.94 364.47 L 129.47 367.24 Q 135 370 140 365 L 142.5 362.5 Q 145 360 150 365 L 152.5 367.5 Q 155 370 160 365 L 162.5 362.5 Q 165 360 170 365 L 172.5 367.5 Q 175 370 180 362 L 182.5 358 Q 185 354 190 357 L 192.5 358.5 Q 195 360 200 355 L 202.5 352.5 Q 205 350 210 355 L 212.5 357.5 Q 215 360 219.47 351.06 L 222.24 345.53 Q 225 340 234.2 342.6 L 243.4 345.2" fill="none" stroke="#bbcbf9" stroke-width="9" stroke-miterlimit="10" pointer-events="stroke"/><ellipse cx="155" cy="300" rx="100" ry="100" fill="none" stroke="#677de9" stroke-width="18" pointer-events="all"/><ellipse cx="445" cy="300" rx="100" ry="100" fill="none" stroke="#677de9" stroke-width="18" pointer-events="all"/><path d="M 255 300 Q 275 280 300 280 Q 325 280 345 300" fill="none" stroke="#677de9" stroke-width="18" stroke-miterlimit="10" pointer-events="stroke"/><ellipse cx="25" cy="300" rx="10" ry="10" fill="#677de9" stroke="none" pointer-events="all"/><ellipse cx="575" cy="300" rx="10" ry="10" fill="#677de9" stroke="none" pointer-events="all"/><rect x="25" y="290" width="30" height="20" fill="#677de9" stroke="none" pointer-events="all"/><rect x="545" y="290" width="30" height="20" fill="#677de9" stroke="none" pointer-events="all"/></g></svg>