<svg width="371" height="371" viewBox="0 0 371 371" fill="none" xmlns="http://www.w3.org/2000/svg">
<rect width="371" height="371" rx="75" fill="white"/>
<circle cx="185.498" cy="227.327" r="100.321" fill="#B3C3FF"/>
<circle cx="185.069" cy="227.327" r="64.8932" fill="#0C1D59"/>
<rect x="172.331" y="45" width="28.3935" height="38.0867" rx="14.1967" fill="#B3C3FF"/>
<rect x="250.067" y="54.0625" width="28.4661" height="38.1862" rx="14.233" transform="rotate(20 250.067 54.0625)" fill="#B3C3FF"/>
<rect x="96.3152" y="63.7998" width="28.4661" height="38.1862" rx="14.233" transform="rotate(-20 96.3152 63.7998)" fill="#B3C3FF"/>
<mask id="mask0_202_25" style="mask-type:alpha" maskUnits="userSpaceOnUse" x="85" y="126" width="201" height="202">
<circle cx="185.509" cy="227.302" r="100.318" fill="black"/>
</mask>
<g mask="url(#mask0_202_25)">
<g opacity="0.8">
<path d="M141.261 249.469C127.421 250.802 114.358 256.482 103.945 265.695C93.531 274.908 86.3015 287.181 83.2921 300.756L115.432 307.881C116.937 301.094 120.551 294.957 125.758 290.351C130.965 285.744 137.496 282.904 144.416 282.238L141.261 249.469Z" fill="white"/>
<path d="M143.254 282.397C157.094 281.064 170.157 275.384 180.57 266.171C190.984 256.958 198.213 244.685 201.223 231.11L169.083 223.985C167.578 230.772 163.963 236.909 158.757 241.516C153.55 246.122 147.018 248.962 140.098 249.628L143.254 282.397Z" fill="white"/>
<path d="M227.062 172.728C213.222 174.061 200.159 179.741 189.745 188.954C179.332 198.167 172.102 210.44 169.093 224.015L201.233 231.14C202.737 224.353 206.352 218.216 211.559 213.609C216.766 209.003 223.297 206.163 230.217 205.497L227.062 172.728Z" fill="white"/>
<path d="M229.035 205.622C242.875 204.289 255.938 198.609 266.351 189.396C276.765 180.183 283.994 167.909 287.004 154.335L254.864 147.21C253.359 153.997 249.744 160.134 244.538 164.74C239.331 169.347 232.799 172.187 225.879 172.853L229.035 205.622Z" fill="white"/>
</g>
</g>
<mask id="mask1_202_25" style="mask-type:alpha" maskUnits="userSpaceOnUse" x="41" y="83" width="289" height="160">
<rect x="41" y="83.0869" width="288.91" height="159.209" fill="#C4C4C4"/>
</mask>
<g mask="url(#mask1_202_25)">
<path d="M322.335 176.844C308.854 152.323 289.036 131.872 264.95 117.627C240.864 103.383 213.395 95.8682 185.412 95.8682C157.43 95.8682 129.961 103.383 105.875 117.627C81.7888 131.871 61.9703 152.323 48.4895 176.844L75.874 191.899C86.6587 172.282 102.514 155.921 121.782 144.525C141.051 133.13 163.026 127.118 185.412 127.118C207.798 127.118 229.774 133.13 249.042 144.525C268.311 155.921 284.166 172.282 294.95 191.899L322.335 176.844Z" fill="#0C1D59"/>
<path d="M322.353 176.809C324.349 180.439 324.821 184.714 323.665 188.693C322.509 192.671 319.82 196.028 316.189 198.024C312.559 200.02 308.284 200.492 304.305 199.336C300.327 198.18 296.97 195.491 294.974 191.86L308.664 184.334L322.353 176.809Z" fill="#0C1D59"/>
<path d="M75.9045 191.897C73.9086 195.528 70.5521 198.217 66.5735 199.373C62.5949 200.529 58.3201 200.057 54.6894 198.061C51.0588 196.065 48.3698 192.708 47.2139 188.73C46.058 184.751 46.5299 180.476 48.5259 176.846L62.2152 184.371L75.9045 191.897Z" fill="#0C1D59"/>
</g>
</svg>
