<?xml version="1.0" standalone="no"?>
<!DOCTYPE svg PUBLIC "-//W3C//DTD SVG 20010904//EN"
 "http://www.w3.org/TR/2001/REC-SVG-20010904/DTD/svg10.dtd">
<svg version="1.0" xmlns="http://www.w3.org/2000/svg"
 width="1484.000000pt" height="1484.000000pt" viewBox="0 0 1484.000000 1484.000000"
 preserveAspectRatio="xMidYMid meet">
<metadata>
Created by potrace 1.14, written by Peter Selinger 2001-2017
</metadata>
<g transform="translate(0.000000,1484.000000) scale(0.100000,-0.100000)"
fill="#000000" stroke="none">
<path d="M7100 10999 c-1001 -50 -2008 -354 -2870 -867 -479 -285 -865 -587
-1257 -983 -377 -381 -664 -751 -933 -1204 -107 -179 -144 -261 -164 -357 -20
-97 -20 -149 0 -245 59 -287 288 -485 579 -500 269 -14 463 108 623 391 491
868 1260 1585 2175 2026 850 410 1794 565 2772 454 979 -110 1984 -567 2731
-1241 422 -381 711 -744 1045 -1313 214 -365 692 -428 989 -130 131 130 186
274 177 465 -6 136 -22 185 -119 354 -446 784 -1067 1471 -1799 1994 -1148
819 -2539 1227 -3949 1156z"/>
<path d="M7195 8339 c-436 -36 -855 -179 -1215 -416 -961 -633 -1391 -1797
-1073 -2908 26 -93 101 -295 109 -295 2 0 55 15 117 34 143 43 316 80 478 100
153 20 252 44 365 90 268 109 511 324 651 573 62 111 102 221 153 414 60 227
101 339 189 524 128 266 287 491 496 701 276 278 555 461 920 605 115 46 306
103 400 121 36 6 65 15 65 19 0 14 -184 122 -325 190 -328 158 -681 243 -1055
253 -91 3 -214 1 -275 -5z"/>
<path d="M9680 6724 c-112 -37 -334 -83 -515 -108 -439 -59 -805 -318 -1006
-711 -49 -96 -83 -196 -143 -421 -48 -182 -94 -303 -186 -489 -132 -268 -287
-484 -494 -690 -346 -344 -766 -579 -1240 -695 -65 -16 -121 -31 -122 -33 -7
-7 207 -129 318 -181 223 -105 475 -182 728 -222 164 -26 595 -27 760 -1 571
90 1062 337 1460 736 212 212 361 421 496 696 137 278 224 582 255 890 18 185
7 505 -25 685 -38 221 -143 570 -172 576 -5 1 -56 -14 -114 -32z"/>
</g>
</svg>
